<svg width="64" height="64" viewBox="0 0 64 64" fill="none" xmlns="http://www.w3.org/2000/svg">
<circle cx="32" cy="32" r="32" fill="url(#paint0_linear_899_16409)"/>
<path d="M37.0398 18.6667H26.9598C21.9198 18.6667 20.6665 20.0134 20.6665 25.3867V40.4001C20.6665 43.9467 22.6132 44.7867 24.9732 42.2534L24.9865 42.2401C26.0798 41.0801 27.7465 41.1734 28.6932 42.4401L30.0398 44.2401C31.1198 45.6667 32.8665 45.6667 33.9465 44.2401L35.2932 42.4401C36.2532 41.1601 37.9198 41.0667 39.0132 42.2401C41.3865 44.7734 43.3198 43.9334 43.3198 40.3867V25.3867C43.3332 20.0134 42.0798 18.6667 37.0398 18.6667ZM26.3732 32.0001C25.6398 32.0001 25.0398 31.4001 25.0398 30.6667C25.0398 29.9334 25.6398 29.3334 26.3732 29.3334C27.1065 29.3334 27.7065 29.9334 27.7065 30.6667C27.7065 31.4001 27.1065 32.0001 26.3732 32.0001ZM26.3732 26.6667C25.6398 26.6667 25.0398 26.0667 25.0398 25.3334C25.0398 24.6001 25.6398 24.0001 26.3732 24.0001C27.1065 24.0001 27.7065 24.6001 27.7065 25.3334C27.7065 26.0667 27.1065 26.6667 26.3732 26.6667ZM37.6398 31.6667H30.3065C29.7598 31.6667 29.3065 31.2134 29.3065 30.6667C29.3065 30.1201 29.7598 29.6667 30.3065 29.6667H37.6398C38.1865 29.6667 38.6398 30.1201 38.6398 30.6667C38.6398 31.2134 38.1865 31.6667 37.6398 31.6667ZM37.6398 26.3334H30.3065C29.7598 26.3334 29.3065 25.8801 29.3065 25.3334C29.3065 24.7867 29.7598 24.3334 30.3065 24.3334H37.6398C38.1865 24.3334 38.6398 24.7867 38.6398 25.3334C38.6398 25.8801 38.1865 26.3334 37.6398 26.3334Z" fill="white"/>
<defs>
<linearGradient id="paint0_linear_899_16409" x1="0" y1="0" x2="139.448" y2="65.9368" gradientUnits="userSpaceOnUse">
<stop stop-color="#7D3EF5"/>
<stop offset="1" stop-color="#EB56A5"/>
</linearGradient>
</defs>
</svg>
