<svg width="64" height="64" viewBox="0 0 64 64" fill="none" xmlns="http://www.w3.org/2000/svg">
<circle cx="32" cy="32" r="32" fill="url(#paint0_linear_1306_1375)"/>
<path d="M37.587 18.6667H26.4137C21.5603 18.6667 18.667 21.5601 18.667 26.4134V37.5734C18.667 42.4401 21.5603 45.3334 26.4137 45.3334H37.5737C42.427 45.3334 45.3203 42.4401 45.3203 37.5867V26.4134C45.3337 21.5601 42.4403 18.6667 37.587 18.6667ZM39.0137 29.2801L35.9337 33.2534C35.547 33.7467 35.0003 34.0667 34.3737 34.1334C33.747 34.2134 33.1337 34.0401 32.6403 33.6534L30.2003 31.7334C30.0634 31.616 29.8286 31.6558 29.7203 31.8001L26.547 35.9201C26.347 36.1734 26.0537 36.3067 25.7603 36.3067C25.547 36.3067 25.3337 36.2401 25.147 36.0934C24.707 35.7601 24.627 35.1334 24.9603 34.6934L28.1337 30.5734C28.5203 30.0801 29.067 29.7601 29.6937 29.6801C30.307 29.6001 30.9337 29.7734 31.427 30.1601L33.867 32.0801C34.0043 32.1978 34.2385 32.1581 34.347 32.0134L37.427 28.0401C37.7603 27.6001 38.4003 27.5201 38.827 27.8667C39.267 28.2267 39.347 28.8534 39.0137 29.2801Z" fill="white"/>
<defs>
<linearGradient id="paint0_linear_1306_1375" x1="0" y1="0" x2="139.448" y2="65.9368" gradientUnits="userSpaceOnUse">
<stop stop-color="#7D3EF5"/>
<stop offset="1" stop-color="#EB56A5"/>
</linearGradient>
</defs>
</svg>
