<svg width="64" height="64" viewBox="0 0 64 64" fill="none" xmlns="http://www.w3.org/2000/svg">
<circle cx="32" cy="32" r="32" fill="url(#paint0_linear_1306_1356)"/>
<path d="M37.0403 18.6667H26.9603C21.9203 18.6667 20.667 20.0134 20.667 25.3867V40.4001C20.667 43.9467 22.6137 44.7867 24.9737 42.2534L24.987 42.2401C26.0803 41.0801 27.747 41.1734 28.6937 42.4401L30.0403 44.2401C31.1203 45.6667 32.867 45.6667 33.947 44.2401L35.2937 42.4401C36.2537 41.1601 37.9203 41.0667 39.0137 42.2401C41.387 44.7734 43.3203 43.9334 43.3203 40.3867V25.3867C43.3337 20.0134 42.0803 18.6667 37.0403 18.6667ZM28.0003 25.3334C28.7337 25.3334 29.3337 25.9334 29.3337 26.6667C29.3337 27.4001 28.747 28.0001 28.0003 28.0001C27.2537 28.0001 26.667 27.4001 26.667 26.6667C26.667 25.9334 27.2537 25.3334 28.0003 25.3334ZM36.0003 34.6667C35.2537 34.6667 34.667 34.0667 34.667 33.3334C34.667 32.6001 35.267 32.0001 36.0003 32.0001C36.7337 32.0001 37.3337 32.6001 37.3337 33.3334C37.3337 34.0667 36.747 34.6667 36.0003 34.6667ZM37.2003 26.1201L28.227 35.0934C28.027 35.2934 27.7737 35.3867 27.5203 35.3867C27.267 35.3867 27.0137 35.2934 26.8137 35.0934C26.427 34.7067 26.427 34.0667 26.8137 33.6801L35.787 24.7067C36.1737 24.3201 36.8137 24.3201 37.2003 24.7067C37.587 25.0934 37.587 25.7334 37.2003 26.1201Z" fill="white"/>
<defs>
<linearGradient id="paint0_linear_1306_1356" x1="0" y1="0" x2="139.448" y2="65.9368" gradientUnits="userSpaceOnUse">
<stop stop-color="#7D3EF5"/>
<stop offset="1" stop-color="#EB56A5"/>
</linearGradient>
</defs>
</svg>
