<svg width="64" height="64" viewBox="0 0 64 64" fill="none" xmlns="http://www.w3.org/2000/svg">
<circle cx="32" cy="32" r="32" fill="url(#paint0_linear_1306_966)"/>
<path d="M42.8003 28.2933C40.387 28.2933 39.4003 26.5867 40.6003 24.4933C41.2937 23.28 40.8803 21.7333 39.667 21.04L37.3603 19.72C36.307 19.0933 34.947 19.4667 34.3203 20.52L34.1737 20.7733C32.9737 22.8667 31.0003 22.8667 29.787 20.7733L29.6403 20.52C29.0403 19.4667 27.6803 19.0933 26.627 19.72L24.3203 21.04C23.107 21.7333 22.6937 23.2933 23.387 24.5067C24.6003 26.5867 23.6137 28.2933 21.2003 28.2933C19.8137 28.2933 18.667 29.4267 18.667 30.8267V33.1733C18.667 34.56 19.8003 35.7067 21.2003 35.7067C23.6137 35.7067 24.6003 37.4133 23.387 39.5067C22.6937 40.72 23.107 42.2667 24.3203 42.96L26.627 44.28C27.6803 44.9067 29.0403 44.5333 29.667 43.48L29.8137 43.2267C31.0137 41.1333 32.987 41.1333 34.2003 43.2267L34.347 43.48C34.9737 44.5333 36.3337 44.9067 37.387 44.28L39.6937 42.96C40.907 42.2667 41.3203 40.7067 40.627 39.5067C39.4137 37.4133 40.4003 35.7067 42.8137 35.7067C44.2003 35.7067 45.347 34.5733 45.347 33.1733V30.8267C45.3337 29.44 44.2003 28.2933 42.8003 28.2933ZM32.0003 36.3333C29.6137 36.3333 27.667 34.3867 27.667 32C27.667 29.6133 29.6137 27.6667 32.0003 27.6667C34.387 27.6667 36.3337 29.6133 36.3337 32C36.3337 34.3867 34.387 36.3333 32.0003 36.3333Z" fill="white"/>
<defs>
<linearGradient id="paint0_linear_1306_966" x1="0" y1="0" x2="139.448" y2="65.9368" gradientUnits="userSpaceOnUse">
<stop stop-color="#7D3EF5"/>
<stop offset="1" stop-color="#EB56A5"/>
</linearGradient>
</defs>
</svg>
