<svg width="64" height="64" viewBox="0 0 64 64" fill="none" xmlns="http://www.w3.org/2000/svg">
<circle cx="32" cy="32" r="32" fill="url(#paint0_linear_1306_23)"/>
<path fill-rule="evenodd" clip-rule="evenodd" d="M37.9737 35.8134C37.9737 35.8555 38.0114 35.8878 38.053 35.8811C42.1743 35.2211 45.3337 31.6524 45.3337 27.3334C45.3337 22.5467 41.4537 18.6667 36.6671 18.6667C32.3342 18.6667 28.7565 21.8464 28.1131 25.9871C28.1099 26.0079 28.126 26.0267 28.1471 26.0267C33.3604 26.4401 37.5604 30.6401 37.9737 35.8134ZM27.3337 45.3333C32.1203 45.3333 36.0003 41.4533 36.0003 36.6667C36.0003 36.44 35.987 36.2 35.9737 35.9733C35.6403 31.7467 32.2537 28.36 28.027 28.0267C27.8003 28.0133 27.5603 28 27.3337 28C22.547 28 18.667 31.88 18.667 36.6667C18.667 41.4533 22.547 45.3333 27.3337 45.3333ZM23.4537 18.6667H20.0003C19.267 18.6667 18.667 19.2667 18.667 20.0001V23.4534C18.667 24.6401 20.107 25.2401 20.947 24.4001L24.4003 20.9467C25.227 20.1067 24.6403 18.6667 23.4537 18.6667ZM44.0003 45.3334H40.547C39.3603 45.3334 38.7737 43.8934 39.6003 43.0534L43.0537 39.6C43.8937 38.76 45.3337 39.36 45.3337 40.5467V44C45.3337 44.7334 44.7337 45.3334 44.0003 45.3334Z" fill="white"/>
<defs>
<linearGradient id="paint0_linear_1306_23" x1="0" y1="0" x2="139.448" y2="65.9368" gradientUnits="userSpaceOnUse">
<stop stop-color="#7D3EF5"/>
<stop offset="1" stop-color="#EB56A5"/>
</linearGradient>
</defs>
</svg>
