<svg width="64" height="64" viewBox="0 0 64 64" fill="none" xmlns="http://www.w3.org/2000/svg">
<circle cx="32" cy="32" r="32" fill="url(#paint0_linear_1306_944)"/>
<path fill-rule="evenodd" clip-rule="evenodd" d="M43.9864 25.3334V24.2534C43.9864 21.1734 41.4797 18.6667 38.3997 18.6667H24.2797C21.1864 18.6667 18.6797 21.1734 18.6797 24.2534V32.7467C18.6797 35.7467 21.0397 38.1867 23.9997 38.3334H28.6664V43.4401H26.0664C25.533 43.4401 25.1064 43.8534 25.1064 44.3867C25.1064 44.9067 25.533 45.3334 26.0664 45.3334H28.6664C29.3997 45.3334 29.9997 44.7334 29.9997 44.0001V31.8401C29.9997 28.4134 31.733 26.6667 35.1464 26.6667H42.653C43.3864 26.6667 43.9864 26.0667 43.9864 25.3334ZM42.1864 28.6667C42.9331 28.6667 43.5331 28.7601 43.9864 28.9467C44.9598 29.3601 45.3331 30.2534 45.3331 31.8401V42.1601C45.3331 44.4934 44.5064 45.3334 42.1864 45.3334H35.1464C33.5864 45.3334 32.7064 44.9601 32.2931 44.0001C32.0931 43.5334 31.9998 42.9334 31.9998 42.1601V31.8401C31.9998 29.4934 32.8264 28.6667 35.1464 28.6667H42.1864ZM37.3331 42.3334H39.9998C40.5464 42.3334 40.9998 41.8801 40.9998 41.3334C40.9998 40.7867 40.5464 40.3334 39.9998 40.3334H37.3331C36.7864 40.3334 36.3331 40.7867 36.3331 41.3334C36.3331 41.6534 36.4798 41.9334 36.7198 42.1067C36.8664 42.2401 37.0398 42.3067 37.2398 42.3201C37.2664 42.3334 37.3064 42.3334 37.3331 42.3334Z" fill="white"/>
<defs>
<linearGradient id="paint0_linear_1306_944" x1="0" y1="0" x2="139.448" y2="65.9368" gradientUnits="userSpaceOnUse">
<stop stop-color="#7D3EF5"/>
<stop offset="1" stop-color="#EB56A5"/>
</linearGradient>
</defs>
</svg>
