<svg width="64" height="64" viewBox="0 0 64 64" fill="none" xmlns="http://www.w3.org/2000/svg">
<circle cx="32" cy="32" r="32" fill="url(#paint0_linear_1304_910)"/>
<path fill-rule="evenodd" clip-rule="evenodd" d="M18.6664 39.8667L18.6665 39.8793V40.1868C18.6665 42.9868 20.9465 45.2668 23.7465 45.2668H23.9198C26.7198 45.2668 28.9998 42.9868 28.9998 40.1868V37.6801C28.9998 34.8801 26.7198 32.6001 23.9198 32.6001H23.7465C23.0894 32.6001 22.4609 32.7257 21.8838 32.9541C21.3497 33.1655 20.6664 32.8145 20.6664 32.2401C20.6131 29.1467 21.7464 26.2534 23.8798 24.0801C25.9998 21.9201 28.8531 20.7334 31.9331 20.7334C38.2264 20.7334 43.3331 25.8534 43.3331 32.1334C43.3331 32.7515 42.5956 33.1311 42.0162 32.9159C41.4667 32.7117 40.8726 32.6001 40.2531 32.6001H40.0798C37.2798 32.6001 34.9998 34.8801 34.9998 37.6801V40.1868C34.9998 42.9868 37.2798 45.2668 40.0798 45.2668H40.2531C43.0531 45.2668 45.3331 42.9868 45.3331 40.1868V39.7361C45.3331 39.7352 45.3331 39.7343 45.3331 39.7334V32.1334C45.3331 24.7467 39.3198 18.7334 31.9331 18.7334C28.3198 18.7334 24.9598 20.1334 22.4531 22.6801C19.9464 25.2401 18.5998 28.6534 18.6664 32.2667V39.8667Z" fill="white"/>
<defs>
<linearGradient id="paint0_linear_1304_910" x1="0" y1="0" x2="139.448" y2="65.9368" gradientUnits="userSpaceOnUse">
<stop stop-color="#7D3EF5"/>
<stop offset="1" stop-color="#EB56A5"/>
</linearGradient>
</defs>
</svg>
