<svg width="72" height="72" viewBox="0 0 72 72" fill="none" xmlns="http://www.w3.org/2000/svg">
<g filter="url(#filter0_b_899_16131)">
<circle cx="36" cy="36" r="36" fill="#331C44"/>
<circle cx="36" cy="36" r="35.5" stroke="#7D3EF5" stroke-opacity="0.4"/>
</g>
<path d="M41.0398 22.6667H30.9598C25.9198 22.6667 24.6665 24.0134 24.6665 29.3867V44.4001C24.6665 47.9467 26.6132 48.7867 28.9732 46.2534L28.9865 46.2401C30.0798 45.0801 31.7465 45.1734 32.6932 46.4401L34.0398 48.2401C35.1198 49.6667 36.8665 49.6667 37.9465 48.2401L39.2932 46.4401C40.2532 45.1601 41.9198 45.0667 43.0132 46.2401C45.3865 48.7734 47.3198 47.9334 47.3198 44.3867V29.3867C47.3332 24.0134 46.0798 22.6667 41.0398 22.6667ZM31.9998 29.3334C32.7332 29.3334 33.3332 29.9334 33.3332 30.6667C33.3332 31.4001 32.7465 32.0001 31.9998 32.0001C31.2532 32.0001 30.6665 31.4001 30.6665 30.6667C30.6665 29.9334 31.2532 29.3334 31.9998 29.3334ZM39.9998 38.6667C39.2532 38.6667 38.6665 38.0667 38.6665 37.3334C38.6665 36.6001 39.2665 36.0001 39.9998 36.0001C40.7332 36.0001 41.3332 36.6001 41.3332 37.3334C41.3332 38.0667 40.7465 38.6667 39.9998 38.6667ZM41.1998 30.1201L32.2265 39.0934C32.0265 39.2934 31.7732 39.3867 31.5198 39.3867C31.2665 39.3867 31.0132 39.2934 30.8132 39.0934C30.4265 38.7067 30.4265 38.0667 30.8132 37.6801L39.7865 28.7067C40.1732 28.3201 40.8132 28.3201 41.1998 28.7067C41.5865 29.0934 41.5865 29.7334 41.1998 30.1201Z" fill="url(#paint0_linear_899_16131)"/>
<defs>
<filter id="filter0_b_899_16131" x="-20" y="-20" width="112" height="112" filterUnits="userSpaceOnUse" color-interpolation-filters="sRGB">
<feFlood flood-opacity="0" result="BackgroundImageFix"/>
<feGaussianBlur in="BackgroundImageFix" stdDeviation="10"/>
<feComposite in2="SourceAlpha" operator="in" result="effect1_backgroundBlur_899_16131"/>
<feBlend mode="normal" in="SourceGraphic" in2="effect1_backgroundBlur_899_16131" result="shape"/>
</filter>
<linearGradient id="paint0_linear_899_16131" x1="24.6665" y1="22.6667" x2="76.6578" y2="43.5689" gradientUnits="userSpaceOnUse">
<stop stop-color="#7D3EF5"/>
<stop offset="1" stop-color="#EB56A5"/>
</linearGradient>
</defs>
</svg>
