<svg width="64" height="64" viewBox="0 0 64 64" fill="none" xmlns="http://www.w3.org/2000/svg">
<circle cx="32" cy="32" r="32" fill="url(#paint0_linear_899_16416)"/>
<path d="M44.1332 26.4934C44.9065 25.6401 45.3332 24.5334 45.3332 23.3734C45.3332 20.7734 43.2265 18.6667 40.6265 18.6667C39.4665 18.6667 38.3732 19.0934 37.5198 19.8667C35.7998 19.0667 33.9465 18.6667 31.9998 18.6667C30.0932 18.6667 28.1998 19.0801 26.4932 19.8667C25.6398 19.0934 24.5332 18.6667 23.3732 18.6667C20.7732 18.6667 18.6665 20.7734 18.6665 23.3734C18.6665 24.5334 19.0932 25.6401 19.8665 26.4934C19.0798 28.2001 18.6665 30.0934 18.6665 32.0001C18.6665 33.9467 19.0665 35.8001 19.8665 37.5201C19.0932 38.3734 18.6665 39.4667 18.6665 40.6267C18.6665 43.2267 20.7732 45.3334 23.3732 45.3334C24.5332 45.3334 25.6398 44.9067 26.4932 44.1334C28.1998 44.9201 30.0932 45.3334 31.9998 45.3334C33.9465 45.3334 35.7998 44.9334 37.5198 44.1334C38.3732 44.9067 39.4665 45.3334 40.6265 45.3334C43.2265 45.3334 45.3332 43.2267 45.3332 40.6267C45.3332 39.4667 44.9065 38.3734 44.1332 37.5201C44.9332 35.8001 45.3332 33.9467 45.3332 32.0001C45.3332 30.0934 44.9198 28.2001 44.1332 26.4934ZM42.2398 36.2267C42.0932 36.1734 41.9465 36.1201 41.7998 36.0801C41.5732 36.0267 41.3332 35.9867 41.1065 35.9601C40.9465 35.9467 40.7865 35.9334 40.6265 35.9334C38.0398 35.9334 35.9332 38.0401 35.9332 40.6267C35.9332 40.7867 35.9465 40.9467 35.9598 41.1067C35.9865 41.3334 36.0265 41.5734 36.0798 41.8001C36.1198 41.9467 36.1732 42.0934 36.2265 42.2401C36.2265 42.2801 36.2398 42.3201 36.2665 42.3601C36.2798 42.4001 36.2932 42.4401 36.3065 42.4801C33.6265 43.6001 30.4265 43.6134 27.6932 42.4801C27.7065 42.4401 27.7198 42.4001 27.7332 42.3601C27.7598 42.3201 27.7732 42.2801 27.7732 42.2401C27.8265 42.0934 27.8798 41.9467 27.9198 41.8001C27.9732 41.5734 28.0132 41.3334 28.0398 41.1067C28.0532 40.9467 28.0665 40.7867 28.0665 40.6267C28.0665 38.0401 25.9598 35.9334 23.3732 35.9334C23.2132 35.9334 23.0532 35.9467 22.8932 35.9601C22.6665 35.9867 22.4265 36.0267 22.1998 36.0801C22.0532 36.1201 21.9065 36.1734 21.7598 36.2267C21.7198 36.2267 21.6798 36.2401 21.6398 36.2667C21.5998 36.2801 21.5598 36.2934 21.5198 36.3067C20.9465 34.9601 20.6665 33.5067 20.6665 32.0001C20.6665 30.5201 20.9598 29.0401 21.5198 27.6934C21.5332 27.6934 21.5598 27.7067 21.5732 27.7067C21.4132 27.6401 21.2398 27.5601 21.0932 27.4801C20.8798 27.3601 20.6665 27.2267 20.4665 27.0667C20.8665 27.3734 21.2932 27.6134 21.7598 27.7734C21.9198 27.8401 22.0932 27.8934 22.2532 27.9334C22.3598 27.9601 22.4532 27.9734 22.5465 27.9867C22.6665 28.0134 22.7732 28.0267 22.8932 28.0401C23.0532 28.0534 23.2132 28.0667 23.3732 28.0667C25.9598 28.0667 28.0665 25.9601 28.0665 23.3734C28.0665 23.2134 28.0532 23.0534 28.0398 22.8934C28.0265 22.7734 28.0132 22.6667 27.9865 22.5467C27.9732 22.4534 27.9598 22.3601 27.9332 22.2534C27.8932 22.0934 27.8398 21.9201 27.7732 21.7601C27.6132 21.2934 27.3732 20.8667 27.0665 20.4667C27.2265 20.6667 27.3598 20.8801 27.4798 21.0934C27.5598 21.2401 27.6398 21.4134 27.7065 21.5734C27.7065 21.5601 27.6932 21.5334 27.6932 21.5201C30.4132 20.3867 33.6265 20.4001 36.3065 21.5201C36.2932 21.5601 36.2798 21.6001 36.2665 21.6401C36.2398 21.6801 36.2265 21.7201 36.2265 21.7601C36.1732 21.9067 36.1198 22.0534 36.0798 22.2001C36.0265 22.4267 35.9865 22.6667 35.9598 22.8934C35.9465 23.0534 35.9332 23.2134 35.9332 23.3734C35.9332 25.9601 38.0398 28.0667 40.6265 28.0667C40.7865 28.0667 40.9465 28.0534 41.1065 28.0401C41.3332 28.0134 41.5732 27.9734 41.7998 27.9201C41.9465 27.8801 42.0932 27.8267 42.2398 27.7734C42.2798 27.7734 42.3198 27.7601 42.3598 27.7334C42.3998 27.7201 42.4398 27.7067 42.4798 27.6934C43.0398 29.0401 43.3332 30.5201 43.3332 32.0001C43.3332 33.5067 43.0532 34.9601 42.4798 36.3067C42.4398 36.2934 42.3998 36.2801 42.3598 36.2667C42.3198 36.2401 42.2798 36.2267 42.2398 36.2267Z" fill="white"/>
<defs>
<linearGradient id="paint0_linear_899_16416" x1="0" y1="0" x2="139.448" y2="65.9368" gradientUnits="userSpaceOnUse">
<stop stop-color="#7D3EF5"/>
<stop offset="1" stop-color="#EB56A5"/>
</linearGradient>
</defs>
</svg>
