<svg width="72" height="72" viewBox="0 0 72 72" fill="none" xmlns="http://www.w3.org/2000/svg">
<g filter="url(#filter0_b_899_16126)">
<circle cx="36" cy="36" r="36" fill="#331C44"/>
<circle cx="36" cy="36" r="35.5" stroke="#7D3EF5" stroke-opacity="0.4"/>
</g>
<path fill-rule="evenodd" clip-rule="evenodd" d="M26.6669 31.9998C26.6669 26.8398 30.8402 22.6665 36.0002 22.6665C41.1602 22.6665 45.3336 26.8398 45.3336 31.9998C45.3336 33.9332 44.7602 35.7065 43.7736 37.1865C42.3336 39.3198 40.0536 40.8265 37.4002 41.2132C36.9469 41.2932 36.4802 41.3332 36.0002 41.3332C35.5202 41.3332 35.0536 41.2932 34.6002 41.2132C31.9469 40.8265 29.6669 39.3198 28.2269 37.1865C27.2402 35.7065 26.6669 33.9332 26.6669 31.9998ZM38.9736 32.8132L40.0802 31.7065C40.7336 31.0532 40.5202 30.3998 39.6269 30.2532L38.2002 30.0132C37.9469 29.9732 37.6669 29.7598 37.5602 29.5465L36.7736 27.9732C36.3469 27.1198 35.6536 27.1198 35.2269 27.9732L34.4402 29.5465C34.3336 29.7598 34.0536 29.9732 33.8136 30.0132L32.3869 30.2532C31.4802 30.3998 31.2669 31.0532 31.9202 31.7065L33.0536 32.8132C33.2402 32.9998 33.3336 33.3732 33.2802 33.6265L32.9602 34.9998C32.7069 36.0798 33.2802 36.4932 34.2402 35.9332L35.5736 35.1465C35.8136 34.9998 36.2136 34.9998 36.4536 35.1465L37.7869 35.9332C38.7469 36.5065 39.3202 36.0798 39.0669 34.9998L38.7469 33.6265C38.6802 33.3598 38.7869 32.9998 38.9736 32.8132ZM23.6002 44.6265L25.8002 45.1465C26.2936 45.2665 26.6802 45.6398 26.7869 46.1332L27.2536 48.0932C27.5069 49.1598 28.8669 49.4932 29.5736 48.6532L33.5602 44.0665C33.8802 43.6932 33.7069 43.1065 33.2269 42.9865C30.8669 42.4132 28.7469 41.0932 27.1869 39.2132C26.9336 38.9065 26.4802 38.8665 26.2002 39.1465L23.2402 42.1065C22.2269 43.1198 22.5869 44.3865 23.6002 44.6265ZM48.3335 44.6265L46.1335 45.1465C45.6402 45.2665 45.2535 45.6398 45.1469 46.1332L44.6802 48.0932C44.4269 49.1598 43.0669 49.4932 42.3602 48.6532L38.3735 44.0665C38.0535 43.6932 38.2269 43.1065 38.7069 42.9865C41.0669 42.4132 43.1869 41.0932 44.7469 39.2132C45.0002 38.9065 45.4535 38.8665 45.7335 39.1465L48.6935 42.1065C49.7069 43.1198 49.3469 44.3865 48.3335 44.6265Z" fill="url(#paint0_linear_899_16126)"/>
<defs>
<filter id="filter0_b_899_16126" x="-20" y="-20" width="112" height="112" filterUnits="userSpaceOnUse" color-interpolation-filters="sRGB">
<feFlood flood-opacity="0" result="BackgroundImageFix"/>
<feGaussianBlur in="BackgroundImageFix" stdDeviation="10"/>
<feComposite in2="SourceAlpha" operator="in" result="effect1_backgroundBlur_899_16126"/>
<feBlend mode="normal" in="SourceGraphic" in2="effect1_backgroundBlur_899_16126" result="shape"/>
</filter>
<linearGradient id="paint0_linear_899_16126" x1="22.6367" y1="22.6665" x2="80.5655" y2="50.2648" gradientUnits="userSpaceOnUse">
<stop stop-color="#7D3EF5"/>
<stop offset="1" stop-color="#EB56A5"/>
</linearGradient>
</defs>
</svg>
