<svg width="64" height="64" viewBox="0 0 64 64" fill="none" xmlns="http://www.w3.org/2000/svg">
<circle cx="32" cy="32" r="32" fill="url(#paint0_linear_899_16681)"/>
<path d="M30.6665 37.5333V41.1333C30.6665 44.1333 29.4665 45.3333 26.4665 45.3333H22.8665C19.8665 45.3333 18.6665 44.1333 18.6665 41.1333V37.5333C18.6665 34.5333 19.8665 33.3333 22.8665 33.3333H26.4665C29.4665 33.3333 30.6665 34.5333 30.6665 37.5333Z" fill="white"/>
<path d="M39.3335 30.6667C42.6472 30.6667 45.3335 27.9805 45.3335 24.6667C45.3335 21.353 42.6472 18.6667 39.3335 18.6667C36.0198 18.6667 33.3335 21.353 33.3335 24.6667C33.3335 27.9805 36.0198 30.6667 39.3335 30.6667Z" fill="white"/>
<path d="M35.7065 45.3334C35.3465 45.3334 35.0131 45.1334 34.8398 44.8267C34.6665 44.5067 34.6665 44.1334 34.8531 43.8134L36.1465 41.6534C36.4265 41.1734 37.0398 41.0267 37.5198 41.3067C37.9998 41.5867 38.1465 42.2 37.8665 42.68L37.6265 43.08C40.9198 42.2267 43.3465 39.24 43.3465 35.6934C43.3465 35.1467 43.7998 34.6934 44.3465 34.6934C44.8931 34.6934 45.3331 35.1467 45.3331 35.7067C45.3331 41.0134 41.0131 45.3334 35.7065 45.3334Z" fill="white"/>
<path d="M19.6665 29.2934C19.1198 29.2934 18.6665 28.8534 18.6665 28.2934C18.6665 22.9867 22.9865 18.6667 28.2932 18.6667C28.6665 18.6667 28.9865 18.8667 29.1732 19.1734C29.3465 19.4934 29.3465 19.8667 29.1598 20.1867L27.8665 22.3334C27.5732 22.8134 26.9598 22.9734 26.4932 22.6801C26.0132 22.4001 25.8665 21.7867 26.1465 21.3067L26.3865 20.9067C23.1065 21.7601 20.6665 24.7467 20.6665 28.2934C20.6665 28.8534 20.2132 29.2934 19.6665 29.2934Z" fill="white"/>
<defs>
<linearGradient id="paint0_linear_899_16681" x1="0" y1="0" x2="139.448" y2="65.9368" gradientUnits="userSpaceOnUse">
<stop stop-color="#7D3EF5"/>
<stop offset="1" stop-color="#EB56A5"/>
</linearGradient>
</defs>
</svg>
