<svg width="64" height="64" viewBox="0 0 64 64" fill="none" xmlns="http://www.w3.org/2000/svg">
<circle cx="32" cy="32" r="32" fill="url(#paint0_linear_899_16688)"/>
<path d="M46.6669 36.2932C46.1202 36.2932 45.6669 36.7465 45.6669 37.2932C45.6669 41.2399 42.9202 44.5465 39.2269 45.4132L39.5869 44.8132C39.8669 44.3332 39.7202 43.7199 39.2402 43.4399C38.7736 43.1599 38.1469 43.3065 37.8669 43.7865L36.4669 46.1199C36.2802 46.4265 36.2802 46.8132 36.4536 47.1199C36.6269 47.4399 36.9602 47.6265 37.3202 47.6265C43.0136 47.6265 47.6536 42.9865 47.6536 37.2932C47.6669 36.7465 47.2136 36.2932 46.6669 36.2932Z" fill="white"/>
<path d="M26.6668 16.2932C20.9735 16.2932 16.3335 20.9332 16.3335 26.6265C16.3335 27.1732 16.7868 27.6265 17.3335 27.6265C17.8802 27.6265 18.3335 27.1732 18.3335 26.6265C18.3335 22.6799 21.0802 19.3732 24.7735 18.5065L24.4135 19.1065C24.1335 19.5865 24.2802 20.1999 24.7602 20.4799C25.2268 20.7599 25.8535 20.6132 26.1335 20.1332L27.5335 17.7999C27.7068 17.4932 27.7202 17.1199 27.5335 16.7999C27.3602 16.4932 27.0268 16.2932 26.6668 16.2932Z" fill="white"/>
<path d="M44.6665 27.5599C44.6665 31.6666 41.6798 35.0533 37.7732 35.6799C37.7732 35.6666 37.7732 35.6666 37.7732 35.6532C37.3865 30.6799 33.3598 26.6266 28.3198 26.2266C28.9465 22.3199 32.3332 19.3333 36.4398 19.3333C40.9865 19.3333 44.6665 23.0133 44.6665 27.5599Z" fill="white"/>
<path d="M29.08 34.9334C29.08 34.7334 28.8533 34.4268 28.5733 34.4268H25.8267V35.4268H28.5733C28.8533 35.4401 29.08 35.2134 29.08 34.9334Z" fill="white"/>
<path d="M29.1067 37.4399H28.5733H25.8267V38.4399H29.12C29.5467 38.4399 29.84 38.1733 29.84 37.9333C29.84 37.6933 29.5333 37.4399 29.1067 37.4399Z" fill="white"/>
<path d="M35.7735 35.8C35.4668 31.76 32.2402 28.5333 28.2002 28.2266C27.9868 28.2133 27.7868 28.2 27.5602 28.2C23.0135 28.2 19.3335 31.88 19.3335 36.44C19.3335 40.9866 23.0135 44.6666 27.5602 44.6666C32.1068 44.6666 35.8002 40.9866 35.8002 36.44C35.8002 36.2133 35.7868 36.0133 35.7735 35.8ZM29.1068 40.44H28.2268V40.9466C28.2268 41.4933 27.7735 41.9466 27.2268 41.9466C26.6802 41.9466 26.2268 41.4933 26.2268 40.9466V40.44H24.8268C24.2802 40.44 23.8268 39.9866 23.8268 39.44V36.44V33.44C23.8268 32.8933 24.2802 32.44 24.8268 32.44H26.2268V31.9333C26.2268 31.3866 26.6802 30.9333 27.2268 30.9333C27.7735 30.9333 28.2268 31.3866 28.2268 31.9333V32.44H28.5735C29.9068 32.44 31.0802 33.6133 31.0802 34.9466C31.0802 35.3333 30.9868 35.6933 30.8268 36.0266C31.4402 36.48 31.8268 37.1733 31.8268 37.9466C31.8268 39.32 30.6135 40.44 29.1068 40.44Z" fill="white"/>
<defs>
<linearGradient id="paint0_linear_899_16688" x1="0" y1="0" x2="139.448" y2="65.9368" gradientUnits="userSpaceOnUse">
<stop stop-color="#7D3EF5"/>
<stop offset="1" stop-color="#EB56A5"/>
</linearGradient>
</defs>
</svg>
