<svg width="169" height="33" viewBox="0 0 169 33" fill="none" xmlns="http://www.w3.org/2000/svg">
<path d="M166.801 15.3365C167.789 16.3846 168.286 17.8055 168.286 19.6058V29.0765H164.621V20.6795C164.621 19.6186 164.322 18.7828 163.723 18.172C163.123 17.5612 162.314 17.2526 161.288 17.2526C160.077 17.2718 159.114 17.6898 158.407 18.4999C157.699 19.31 157.342 20.3516 157.342 21.6182V29.0765H153.703V8.03254H157.342V16.796C158.369 14.8093 160.172 13.7999 162.747 13.7613C164.456 13.7613 165.813 14.2821 166.801 15.3365ZM145.608 17.0211C144.397 17.0211 143.409 17.439 142.657 18.2684C141.905 19.1043 141.523 20.178 141.523 21.5025C141.523 22.8656 141.905 23.9586 142.657 24.7944C143.416 25.6239 144.397 26.0418 145.615 26.0418C147.406 26.0418 148.751 25.4438 149.649 24.2544L151.918 26.1575C151.249 27.1412 150.331 27.9256 149.261 28.4272C148.158 28.9544 146.883 29.218 145.424 29.218C143.951 29.218 142.638 28.8965 141.491 28.2536C140.363 27.6299 139.432 26.6847 138.82 25.5467C138.183 24.3829 137.864 23.0456 137.864 21.5346C137.864 20.0044 138.189 18.6478 138.833 17.4776C139.451 16.3267 140.388 15.388 141.523 14.7579C142.67 14.1149 143.989 13.7934 145.487 13.7934C146.851 13.7934 148.069 14.0313 149.139 14.5135C150.21 14.9958 151.083 15.6837 151.759 16.571L149.547 18.6992C148.521 17.5805 147.215 17.0211 145.608 17.0211ZM135.538 13.9027V29.0765H131.898V26.6654C131.382 27.4756 130.662 28.1378 129.814 28.5815C128.966 29.0251 127.991 29.2501 126.889 29.2501C125.467 29.2501 124.224 28.9222 123.147 28.2728C122.076 27.6235 121.235 26.704 120.642 25.521C120.05 24.3379 119.75 22.9813 119.75 21.4511C119.75 19.9401 120.05 18.6028 120.649 17.439C121.242 16.2753 122.083 15.3751 123.154 14.7322C124.224 14.0892 125.461 13.7677 126.863 13.7677C127.966 13.7677 128.947 13.9928 129.801 14.4364C130.656 14.88 131.382 15.5359 131.898 16.3524V13.9156L135.538 13.9027ZM130.579 25.0323C131.344 24.2865 131.784 23.2964 131.898 22.0683V20.9946C131.784 19.7601 131.35 18.7764 130.585 18.0305C129.821 17.2847 128.852 16.9118 127.673 16.9118C126.423 16.9118 125.404 17.3426 124.62 18.2041C123.836 19.0657 123.434 20.178 123.415 21.5346C123.434 22.8977 123.836 24.0036 124.62 24.8652C125.404 25.7267 126.423 26.1575 127.673 26.1575C128.845 26.1575 129.814 25.7846 130.579 25.0323ZM116.085 15.8573C117.29 17.2397 117.889 19.175 117.889 21.6697C117.889 22.1583 117.876 22.5312 117.863 22.7756H106.805C107.047 23.8557 107.544 24.698 108.303 25.3152C109.055 25.9325 109.985 26.2347 111.088 26.2347C111.84 26.2347 112.592 26.0868 113.287 25.791C113.982 25.5081 114.606 25.0773 115.123 24.5308L117.079 26.6012C116.321 27.4434 115.39 28.0992 114.345 28.53C113.274 28.9865 112.082 29.2116 110.776 29.2116C109.246 29.2116 107.895 28.8901 106.728 28.2471C105.588 27.6299 104.644 26.6847 104.026 25.5403C103.389 24.3765 103.076 23.0392 103.076 21.5282C103.076 20.0173 103.395 18.6735 104.045 17.5033C104.67 16.3524 105.607 15.4008 106.748 14.7643C107.908 14.1085 109.221 13.787 110.693 13.787C113.083 13.787 114.881 14.4814 116.085 15.8573ZM114.562 20.313C114.524 19.1943 114.16 18.307 113.472 17.6448C112.784 16.9825 111.866 16.6482 110.725 16.6482C109.66 16.6482 108.768 16.9761 108.048 17.6255C107.328 18.2749 106.888 19.1686 106.716 20.3066H114.562V20.313ZM99.1182 14.5714C99.985 14.0506 100.998 13.7806 102.159 13.7613V17.3361C100.61 17.2397 99.3732 17.6062 98.449 18.4292C97.5248 19.2521 97.0595 20.3645 97.0595 21.7597V29.0765H93.4201V13.9027H97.0595V16.8218C97.5694 15.838 98.2514 15.0858 99.1182 14.5714ZM90.6921 28.1378C89.5002 28.8772 88.2446 29.2437 86.938 29.2437C85.6505 29.2437 84.5924 28.8579 83.7766 28.0928C82.9544 27.3277 82.5465 26.1961 82.5465 24.7044V10.3536L86.1604 9.9164V14.52H90.4435V17.214H86.1604V24.055C86.1604 24.7559 86.2879 25.2509 86.5492 25.5403C86.8105 25.836 87.1993 25.9775 87.722 25.9775C88.2828 25.9775 88.9903 25.7717 89.8508 25.3538L90.6921 28.1378ZM75.803 13.9027H79.4169V22.4091C79.4169 27.3727 75.9942 29.218 72.5206 29.218C69.0469 29.218 65.6305 27.3727 65.6305 22.4091V13.9027H69.2444V22.5377C69.2444 24.4408 70.6467 25.9839 72.5269 25.9839C74.4072 25.9839 75.8094 24.4408 75.8094 22.5377L75.803 13.9027ZM58.1414 10.3022C59.7029 11.1573 61.0032 12.4239 61.9083 13.9606C62.8261 15.5101 63.2786 17.2333 63.2786 19.1236C63.2786 21.0138 62.8197 22.737 61.9083 24.2994C61.0032 25.8489 59.7029 27.1284 58.1414 28.0028C56.5416 28.9094 54.776 29.3659 52.832 29.3659C50.888 29.3659 49.1225 28.9094 47.5291 28.0028C45.9675 27.1284 44.6673 25.8489 43.7622 24.2994C42.8507 22.737 42.3918 21.0138 42.3918 19.1236C42.3918 17.2333 42.8507 15.5101 43.7622 13.9606C44.6673 12.4175 45.9675 11.1573 47.5291 10.3022C49.1225 9.4149 50.8944 8.97125 52.832 8.97125C54.776 8.96482 56.5479 9.40847 58.1414 10.3022ZM49.5623 13.2662C48.5489 13.8449 47.7075 14.6871 47.1275 15.703C46.5284 16.7382 46.2288 17.8762 46.2288 19.1236C46.2288 20.3709 46.5348 21.5154 47.1403 22.5569C47.7267 23.5793 48.568 24.428 49.575 25.0259C50.5948 25.6303 51.6975 25.9325 52.8958 25.9325C54.0494 25.9389 55.1839 25.6239 56.1719 25.0259C57.1726 24.428 57.9948 23.5793 58.5684 22.5569C59.1612 21.5089 59.4607 20.3259 59.448 19.1236C59.448 17.8762 59.1548 16.7382 58.5684 15.703C58.0011 14.6936 57.1726 13.8513 56.1719 13.2662C55.1776 12.6747 54.0494 12.3661 52.8958 12.3725C51.723 12.3661 50.5757 12.6747 49.5623 13.2662ZM14.9656 0.458496C20.1219 0.458496 27.9107 2.05946 31.531 5.73075C32.4488 6.66304 33.6534 8.48261 33.6534 11.1573C33.6534 15.9023 29.8738 23.187 25.7053 27.4177C23.551 29.6038 20.1219 32.4585 15.5073 32.4585C10.9947 32.4585 7.5529 29.3594 6.55859 28.3436C2.73434 24.473 0 18.5963 0 13.1248C0 9.66565 0.975184 6.64375 3.45457 4.12978C5.74912 1.80871 9.70722 0.458496 14.9656 0.458496ZM21.3457 19.3936C23.0857 17.6319 23.5574 15.4587 23.5574 14.2628C23.5574 13.3948 23.3343 12.1282 22.2635 11.0416C20.6255 9.37632 18.8026 8.90696 16.8267 8.90696C14.3218 8.90696 12.6391 9.71066 11.5174 10.8423C10.6378 11.7424 9.87932 13.1055 9.87932 15.0536C9.87932 16.9954 10.9055 18.8728 12.0145 20.0044C13.0471 21.046 14.666 21.8175 16.2913 21.8175C17.923 21.8175 19.6057 21.1553 21.3457 19.3936Z" fill="#65587C"/>
</svg>
