<svg width="156" height="29" viewBox="0 0 156 29" fill="none" xmlns="http://www.w3.org/2000/svg">
<path d="M12.7808 14.1911C12.7808 11.5847 10.8204 9.75281 8.41229 9.75281C6.00421 9.75281 4.0438 11.6155 4.0438 14.1911C4.0438 16.7358 6.00421 18.6295 8.41229 18.6295C10.8228 18.6271 12.7808 16.7976 12.7808 14.1911ZM12.8152 21.9488V19.9315C11.6271 21.3287 9.8586 22.1959 7.74078 22.1959C3.34031 22.1959 0 18.7815 0 14.1911C0 9.62923 3.46822 6.15552 7.83917 6.15552C9.89555 6.15552 11.6297 7.02513 12.8176 8.38896V6.43351H16.768V21.9488H12.8152Z" fill="#65587C"/>
<path d="M35.9562 18.5036C34.5738 18.5036 34.1901 18.0069 34.1901 16.7049V9.81688H36.7285V6.4335H34.1901V2.64854H30.1414V6.4335H24.9267V5.49023C24.9267 4.18581 25.4409 3.68922 26.8552 3.68922H27.7432V0.678833H25.795C22.4547 0.678833 20.8805 1.73377 20.8805 4.96038V6.43112H18.6323V9.81454H20.8805V21.9464H24.9293V9.81454H30.1438V17.4177C30.1438 20.5825 31.3959 21.9488 34.6722 21.9488H36.7605V18.5036H35.9562Z" fill="#65587C"/>
<path d="M50.4762 12.794C50.1883 10.7767 48.4838 9.56734 46.4938 9.56734C44.5014 9.56734 42.8633 10.7459 42.4476 12.794H50.4762ZM42.4132 15.2151C42.7034 17.5103 44.4055 18.8148 46.5578 18.8148C48.2599 18.8148 49.5784 18.0378 50.3482 16.7975H54.4929C53.5287 20.0859 50.4762 22.1958 46.4619 22.1958C41.6113 22.1958 38.207 18.9074 38.207 14.2219C38.207 9.53647 41.8057 6.15308 46.5602 6.15308C51.3469 6.15308 54.8151 9.56743 54.8151 14.2219C54.8151 14.5641 54.7831 14.9039 54.7192 15.2151H42.4132Z" fill="#65587C"/>
<path d="M80.5562 14.1911C80.5562 11.6773 78.5958 9.75281 76.1877 9.75281C73.7797 9.75281 71.8192 11.6155 71.8192 14.1911C71.8192 16.7358 73.7797 18.6295 76.1877 18.6295C78.5958 18.6271 80.5562 16.705 80.5562 14.1911ZM67.8345 6.43351H71.7847V8.45073C72.9728 7.02275 74.7389 6.15552 76.8592 6.15552C81.1957 6.15552 84.6 9.6007 84.6 14.1602C84.6 18.7221 81.1317 22.1982 76.7633 22.1982C74.7389 22.1982 73.0688 21.4213 71.9127 20.1193V28.3331H67.8345V6.43351Z" fill="#65587C"/>
<path d="M98.8394 14.1911C98.8394 11.5847 96.8814 9.75281 94.4707 9.75281C92.0627 9.75281 90.1023 11.6155 90.1023 14.1911C90.1023 16.7358 92.0627 18.6295 94.4707 18.6295C96.8814 18.6271 98.8394 16.7976 98.8394 14.1911ZM98.874 21.9488V19.9315C97.6859 21.3287 95.9169 22.1959 93.799 22.1959C89.3988 22.1959 86.0586 18.7815 86.0586 14.1911C86.0586 9.62923 89.5268 6.15552 93.8953 6.15552C95.9515 6.15552 97.6859 7.02513 98.874 8.38896V6.43351H102.825V21.9488H98.874Z" fill="#65587C"/>
<path d="M60.7135 7.95414C60.7135 7.95414 61.7196 6.15552 64.1817 6.15552C65.2345 6.15552 65.9159 6.50478 65.9159 6.50478V10.4632C65.9159 10.4632 64.4301 9.57694 63.065 9.75515C61.6998 9.93336 60.8365 11.1451 60.8414 12.7655V21.9511H56.7632V6.43588H60.7135V7.95414Z" fill="#65587C"/>
<path d="M121.274 6.43347L111.3 28.2831H107.094L111.01 19.8365L104.389 6.43347H109.156L113.03 15.3886L117.005 6.43347H121.274Z" fill="#65587C"/>
<path d="M153.114 6.08184L143.226 0.569529C140.323 -1.04852 136.695 0.973454 136.695 4.21193V4.77742C136.695 5.28826 136.977 5.76108 137.435 6.01531L139.302 7.056C139.85 7.36251 140.534 6.97997 140.534 6.36934V4.96275C140.534 4.25945 141.322 3.8199 141.951 4.17155L150.516 8.94729C151.146 9.29894 151.146 10.1781 150.516 10.5274L141.951 15.3031C141.322 15.6548 140.534 15.2152 140.534 14.5119V13.7634C140.534 10.5249 136.906 8.50061 134.002 10.121L124.114 15.6333C121.211 17.2514 121.211 21.3001 124.114 22.9181L134.002 28.4305C136.904 30.0485 140.534 28.0265 140.534 24.7881V24.2226C140.534 23.7117 140.252 23.2413 139.794 22.9846L137.927 21.9416C137.379 21.6351 136.695 22.0176 136.695 22.6283V24.0349C136.695 24.7382 135.908 25.1777 135.278 24.8261L126.713 20.0503C126.084 19.6987 126.084 18.8196 126.713 18.4679L135.278 13.6921C135.908 13.3405 136.695 13.78 136.695 14.4833V15.2318C136.695 18.4703 140.323 20.4947 143.226 18.8742L153.114 13.3619C156.016 11.7486 156.016 7.69989 153.114 6.08184Z" fill="#65587C"/>
</svg>
