<svg width="170" height="24" viewBox="0 0 170 24" fill="none" xmlns="http://www.w3.org/2000/svg">
<path d="M3.83733 6.65407C3.83733 4.01378 2.5 1.8322 0 0H5.81067C6.83498 0.780243 7.66491 1.78691 8.23555 2.94126C8.80618 4.09562 9.10205 5.36635 9.1 6.65407C9.10205 7.94179 8.80618 9.21253 8.23555 10.3669C7.66491 11.5212 6.83498 12.5279 5.81067 13.3081C7.69733 14.0949 8.77067 16.0151 8.77067 18.7634V24H3.50933V18.7634C3.50933 16.1458 2.26 14.3136 0.00133333 13.3095C2.50133 11.4759 3.83867 9.2957 3.83867 6.65541L3.83733 6.65407ZM15.24 6.65407C15.24 4.01378 13.9027 1.8322 11.4027 0H17.2147C18.2387 0.780381 19.0684 1.78711 19.6388 2.94146C20.2092 4.0958 20.5049 5.36646 20.5027 6.65407C20.5049 7.94168 20.2092 9.21235 19.6388 10.3667C19.0684 11.521 18.2387 12.5278 17.2147 13.3081C19.1 14.0949 20.1747 16.0151 20.1747 18.7634V24H14.912V18.7634C14.912 16.1458 13.6613 14.3136 11.4027 13.3095C13.9027 11.4759 15.24 9.2957 15.24 6.65541V6.65407ZM26.6453 6.65407C26.6453 4.01378 25.308 1.8322 22.808 0H28.6187C29.643 0.780243 30.4729 1.78691 31.0435 2.94126C31.6142 4.09562 31.91 5.36635 31.908 6.65407C31.91 7.94179 31.6142 9.21253 31.0435 10.3669C30.4729 11.5212 29.643 12.5279 28.6187 13.3081C30.5053 14.0949 31.5787 16.0151 31.5787 18.7634V24H26.316V18.7634C26.316 16.1458 25.0667 14.3136 22.808 13.3095C25.308 11.4759 26.6453 9.2957 26.6453 6.65541V6.65407ZM47.936 19.6395H43.9467V4.36315H53.7493C58.464 4.36315 60.788 6.11001 60.788 8.96766C60.788 10.9092 59.648 12.3707 57.5213 13.1135C59.7133 13.4402 60.7 14.5963 60.7 16.6699V19.6368H56.6653V16.8445C56.6653 15.0977 55.788 14.4003 53.4853 14.4003H47.9387V19.6395H47.936ZM53.528 6.58873H47.936V12.176H53.484C55.5013 12.176 56.7507 11.0626 56.7507 9.31704C56.7507 7.59284 55.5907 6.58873 53.528 6.58873ZM67.716 4.36315H63.7253V19.6395H67.716V4.36315ZM79.952 14.6616H75.084V19.6368H71.092V4.36315H80.0387C84.7533 4.36315 87.232 6.32737 87.232 9.47039C87.232 12.7201 84.7107 14.6616 79.952 14.6616ZM79.864 6.58873H75.084V12.436H79.82C81.8813 12.436 83.1533 11.3893 83.1533 9.49172C83.1533 7.63685 81.8813 6.58873 79.864 6.58873ZM98.46 14.6616H93.592V19.6368H89.6V4.36315H98.5467C103.261 4.36315 105.74 6.32737 105.74 9.47039C105.74 12.7201 103.217 14.6616 98.46 14.6616ZM98.372 6.58873H93.592V12.436H98.328C100.389 12.436 101.661 11.3893 101.661 9.49172C101.661 7.63685 100.389 6.58873 98.372 6.58873ZM112.099 4.36315V17.3673H122.055V19.6395H108.108V4.36315H112.099ZM128.543 4.36315H124.552V19.6395H128.543V4.36315ZM134.552 9.46905V19.6395H131.92V4.36315H134.905L145.781 14.5309V4.36315H148.413V19.6395H145.431L134.552 9.46772V9.46905ZM161.44 6.15268C157.645 6.15268 155.168 8.55295 155.168 12.1307C155.168 15.6644 157.536 17.8473 161.22 17.8473H161.483C162.733 17.8473 164.136 17.5846 165.431 17.1712V13.0468H158.984V10.8652H169.333V18.0433C167.185 19.1568 163.939 20.0302 161.308 20.0302H160.957C154.904 20.0302 151.001 16.8432 151.001 12.2174C151.001 7.63551 155.015 3.97111 161.176 3.97111H161.527C164.093 3.97111 167.031 4.77786 169.203 6.04334L168.061 7.89688C166.111 6.82876 163.785 6.15268 161.703 6.15268H161.44Z" fill="#65587C"/>
</svg>
