<svg width="189" height="35" viewBox="0 0 189 35" fill="none" xmlns="http://www.w3.org/2000/svg">
<path d="M60.5716 23.0798C57.8348 23.0798 56.2304 20.9408 56.2304 18.5185C56.2304 15.7188 58.055 13.8627 60.5716 13.8627C61.8928 13.8627 62.7736 14.3975 63.5916 14.9009L64.9127 12.5416C63.9691 11.9439 62.3961 11.2203 60.7289 11.2203C56.3877 11.2203 53.2734 14.3032 53.2734 18.5185C53.2734 22.7023 56.4506 25.8167 60.7289 25.8167C62.5534 25.8167 63.8747 25.0617 64.9127 24.4325L63.5916 22.0733C62.7736 22.6394 61.5468 23.0798 60.5716 23.0798ZM69.8516 4.77148H72.6514V25.4392H69.8516V4.77148ZM88.7891 11.6608L88.4745 12.8562C87.7196 12.0383 86.1152 11.2203 84.4165 11.2203C80.9561 11.2203 77.779 13.9571 77.779 18.4241C77.779 23.0484 80.9561 25.8482 84.4165 25.8482C86.1152 25.8482 87.6567 25.0302 88.4745 24.2123L88.7891 25.4707H91.1484V11.7551H88.7891V11.6608ZM88.5374 18.6128C88.5374 21.7587 86.6185 23.1742 84.794 23.1742C82.938 23.1742 80.7989 21.916 80.7989 18.4555C80.7989 16.2536 81.9628 13.8942 84.5738 13.8942C86.5556 13.8942 88.5374 15.4986 88.5374 18.4555V18.6128ZM101.152 19.7139C103.071 20.2172 103.889 20.5947 103.889 21.5699C103.889 22.3249 103.228 23.1113 101.687 23.1113C100.271 23.1113 99.1072 22.608 98.0062 22.0103L96.7479 24.3696C97.7231 24.9673 99.8936 25.7852 101.687 25.7852C104.77 25.7852 106.562 23.709 106.562 21.6014C106.562 17.9837 103.008 17.4175 102.064 17.1029C100.082 16.5682 99.5791 16.1592 99.5791 15.3413C99.5791 14.4604 100.334 13.8627 101.781 13.8627C103.039 13.8627 103.983 14.2402 104.864 14.6807L106.185 12.3214C104.927 11.7866 103.448 11.2203 101.781 11.2203C98.7612 11.2203 96.9367 13.3594 96.9367 15.3413C96.9367 18.5185 99.6105 19.3364 101.152 19.7139ZM116.157 19.7139C118.076 20.2172 118.894 20.5947 118.894 21.5699C118.894 22.3249 118.233 23.1113 116.692 23.1113C115.276 23.1113 114.112 22.608 113.011 22.0103L111.753 24.3696C112.728 24.9673 114.899 25.7852 116.692 25.7852C119.775 25.7852 121.568 23.709 121.568 21.6014C121.568 17.9837 118.013 17.4175 117.07 17.1029C115.087 16.5682 114.584 16.1592 114.584 15.3413C114.584 14.4604 115.339 13.8627 116.786 13.8627C118.045 13.8627 118.988 14.2402 119.87 14.6807L121.191 12.3214C119.932 11.7866 118.454 11.2203 116.786 11.2203C113.767 11.2203 111.942 13.3594 111.942 15.3413C111.91 18.5185 114.616 19.3364 116.157 19.7139ZM133.71 11.2203C132.012 11.2203 130.471 12.0383 129.653 12.8562L129.338 11.5978H126.979V31.133H129.621V24.3382L129.716 24.2752C130.471 25.0932 132.012 25.7538 133.491 25.7538C137.045 25.7538 140.348 23.4573 140.348 18.3297C140.411 13.7369 137.234 11.2203 133.71 11.2203ZM133.396 23.1742C131.572 23.1742 129.653 21.7587 129.653 18.6128V18.4555C129.653 15.4357 131.634 13.8942 133.617 13.8942C136.258 13.8942 137.392 16.2536 137.392 18.4555C137.392 21.916 135.252 23.1742 133.396 23.1742ZM156.014 11.6608L155.7 12.9191C154.945 12.1012 153.341 11.2833 151.642 11.2833C148.181 11.2833 145.004 14.02 145.004 18.487C145.004 23.1113 148.181 25.9111 151.642 25.9111C153.341 25.9111 154.881 25.0932 155.7 24.2752L156.014 25.5336H158.374V11.818H156.014V11.6608ZM155.731 18.6128C155.731 21.7587 153.812 23.1742 151.987 23.1742C150.131 23.1742 147.993 21.916 147.993 18.4555C147.993 16.2536 149.156 13.8942 151.768 13.8942C153.749 13.8942 155.731 15.4986 155.731 18.4555V18.6128ZM168.377 19.7139C170.296 20.2172 171.113 20.5947 171.113 21.5699C171.113 22.3249 170.453 23.1113 168.911 23.1113C167.496 23.1113 166.332 22.608 165.231 22.0103L163.973 24.3696C164.948 24.9673 167.119 25.7852 168.911 25.7852C171.995 25.7852 173.787 23.709 173.787 21.6014C173.787 17.9837 170.233 17.4175 169.289 17.1029C167.307 16.5682 166.804 16.1592 166.804 15.3413C166.804 14.4604 167.559 13.8627 169.006 13.8627C170.264 13.8627 171.208 14.2402 172.089 14.6807L173.41 12.3214C172.152 11.7866 170.674 11.2203 169.006 11.2203C165.986 11.2203 164.161 13.3594 164.161 15.3413C164.13 18.5185 166.835 19.3364 168.377 19.7139ZM183.351 19.7139C185.27 20.2172 186.087 20.5947 186.087 21.5699C186.087 22.3249 185.427 23.1113 183.885 23.1113C182.47 23.1113 181.306 22.608 180.205 22.0103L178.947 24.3696C179.922 24.9673 182.093 25.7852 183.885 25.7852C186.969 25.7852 188.761 23.709 188.761 21.6014C188.761 17.9837 185.207 17.4175 184.263 17.1029C182.281 16.5682 181.778 16.1592 181.778 15.3413C181.778 14.4604 182.533 13.8627 183.98 13.8627C185.238 13.8627 186.182 14.2402 187.062 14.6807L188.384 12.3214C187.126 11.7866 185.647 11.2203 183.98 11.2203C180.96 11.2203 179.135 13.3594 179.135 15.3413C179.135 18.5185 181.841 19.3364 183.351 19.7139Z" fill="#65587C"/>
<path d="M29.2678 0.399414H24.2031C23.3224 0.399414 22.4416 1.05994 22.3472 1.94077L21.5922 5.55848C21.4978 6.219 20.9316 6.65941 20.271 6.65941H14.6716C7.09025 6.75379 0.0751953 12.4791 0.0751953 20.5951C0.0751953 27.8305 6.11506 34.4366 14.7974 34.4366H20.5226C21.4035 34.4366 22.2843 33.776 22.3787 32.8951L23.1337 29.2775C23.228 28.6169 23.7943 28.1765 24.4548 28.1765H29.3937C37.8559 28.1765 44.1159 21.6962 44.1159 14.3351C43.99 6.219 37.0694 0.399414 29.2678 0.399414ZM29.142 22.7972H23.1966C22.3158 22.7972 21.5608 23.4579 21.3405 24.3387L20.5855 27.8619C20.4912 28.5225 19.9249 28.963 19.2644 28.963H14.8602C10.3618 28.963 5.51737 25.7857 5.51737 20.5008C5.51737 15.6563 9.79561 12.0387 14.8602 12.0387H21.6551C22.536 12.0387 23.291 11.3781 23.5112 10.4973L24.2661 6.974C24.3604 6.31337 24.9267 5.87296 25.5873 5.87296H29.1105C33.8292 5.87296 38.4535 9.17608 38.4535 14.3351C38.3905 19.0538 34.3325 22.7972 29.142 22.7972Z" fill="#65587C"/>
</svg>
